<?xml version="1.0" encoding="iso-8859-1"?>
<!-- Uploaded to: SVG Repo, www.svgrepo.com, Generator: SVG Repo Mixer Tools -->
<svg height="800px" width="800px" version="1.1" id="Layer_1" xmlns="http://www.w3.org/2000/svg" xmlns:xlink="http://www.w3.org/1999/xlink" 
	 viewBox="0 0 512 512" xml:space="preserve">
<circle style="fill:#79C9DB;" cx="256.007" cy="256.007" r="255.963"/>
<path style="fill:#99DBFF;" d="M256,512C131.971,512.153,22.904,421.952,3.119,295.596C-18.75,155.934,76.742,24.987,216.404,3.118
	C229.711,1.034,242.939,0.016,256.001,0L256,512z"/>
<g>
	<path style="fill:#6B3E35;" d="M412.591,256.02c-8.032,0-14.543-6.512-14.543-14.543v-50.189c0-8.031,6.511-14.543,14.543-14.543
		c8.032,0,14.543,6.513,14.543,14.543v50.189C427.134,249.509,420.623,256.02,412.591,256.02z"/>
	<path style="fill:#6B3E35;" d="M454.95,244.36c-8.032,0-14.543-6.512-14.543-14.543v-53.784c0-8.031,6.511-14.543,14.543-14.543
		s14.543,6.513,14.543,14.543v53.784C469.493,237.848,462.982,244.36,454.95,244.36z"/>
</g>
<path style="fill:#00B379;" d="M69.831,431.674c55.972,59.209,139.189,90.764,225.767,77.206
	C435.241,487.015,530.725,356.1,508.89,216.457C291.47,212.711,140.828,349.168,69.831,431.674z"/>
<path style="fill:#72D473;" d="M0.215,245.631c-0.647,16.412,0.266,33.124,2.904,49.964
	C24.988,435.258,155.935,530.749,295.597,508.88c109.11-17.084,191.261-100.743,211.555-203.123
	C460.671,281.454,285.827,204.484,0.215,245.631z"/>
<path style="fill:#258C64;" d="M0.215,245.631c-0.647,16.412,0.266,33.124,2.904,49.964
	C24.988,435.258,155.935,530.749,295.597,508.88c109.11-17.084,191.261-100.743,211.555-203.123
	C460.671,281.454,285.827,204.484,0.215,245.631z"/>
<path style="fill:#00A36D;" d="M0.215,245.631c-0.647,16.412,0.266,33.124,2.904,49.964C22.904,421.951,131.971,512.151,256,511.999
	V238.251C184.463,231.299,98.96,231.406,0.215,245.631z"/>
<path style="fill:#FFFFFF;" d="M252.607,136.61c-3.694-3.185-8.493-5.124-13.754-5.124H80.697c-11.646,0-21.088,9.442-21.088,21.088
	v104.378c0,11.646,9.442,21.088,21.088,21.088h171.91V136.61z"/>
<path style="fill:#637492;" d="M347.046,173.745l-103.047-12.734v117.027h99.802c11.646,0,21.088-9.442,21.088-21.088v-62.369
	C364.889,184.189,357.316,175.345,347.046,173.745z"/>
<polygon style="fill:#84A2D1;" points="256,161.488 243.999,161.011 243.999,278.038 256.001,278.038 "/>
<path style="fill:#312C90;" d="M362.219,158.272L167.252,89.831c-3.709-1.303-7.781-1.108-11.353,0.535l-99.254,45.749
	c-6.459,2.978-9.975,10.048-8.451,16.994s7.676,11.896,14.789,11.896h184.117l107.004,22.371c1.043,0.218,2.083,0.324,3.111,0.324
	c6.662,0,12.717-4.421,14.572-11.078C373.931,168.94,369.744,160.915,362.219,158.272z"/>
<path style="fill:#4D5CAE;" d="M256.001,120.986l-88.749-31.155c-3.709-1.303-7.781-1.108-11.353,0.535l-99.254,45.749
	c-6.459,2.978-9.975,10.048-8.451,16.994s7.676,11.896,14.789,11.896h184.117l8.901,1.86V120.986z"/>
<path style="fill:#924045;" d="M169.226,248.29c0-8.031-6.511-14.543-14.543-14.543s-14.543,6.513-14.543,14.543v29.087
	c0,0.224,0.023,0.441,0.033,0.662h29.02c0.01-0.221,0.033-0.439,0.033-0.662L169.226,248.29L169.226,248.29z"/>
<path style="fill:#00B379;" d="M5.729,309.656c28.168,131.946,154.945,220.354,289.868,199.226
	c82.883-12.979,150.199-64.376,186.673-133.208C442.254,354.192,277.834,278.123,5.729,309.656z"/>
<path style="fill:#72D473;" d="M5.729,309.656C31.118,428.588,136.625,512.147,256,512V309.746l-2.417-0.307
	C184.969,300.816,102.104,298.488,5.729,309.656z"/>
<path style="fill:#258C64;" d="M28.423,373.277c49.135,95.388,155.356,153.114,267.174,135.605
	c56.293-8.815,105.391-35.367,142.536-73.053C383.542,409.978,243.733,357.843,28.423,373.277z"/>
<path style="fill:#00A36D;" d="M28.423,373.277c43.287,84.037,130.881,138.841,227.576,138.722v-129.86l-1.534-0.246
	C192.249,371.977,116.679,366.95,28.423,373.277z"/>
<path style="fill:#00B379;" d="M295.597,508.882c25.026-3.918,48.62-11.361,70.387-21.707
	c-60.329-21.811-159.383-48.248-289.097-48.333C132.662,493.402,212.582,521.879,295.597,508.882z"/>
<path style="fill:#72D473;" d="M256.001,456.552c-50.304-10.228-110.409-17.666-179.116-17.711
	C123.721,484.656,187.579,512.08,256,511.999L256.001,456.552z"/>
</svg>